{"title":"Gali Gali Chor Hai (Title Track) - H.264 - 720p [HD] ~~~AbhinavR","uid":6936873,"size":31997091,"categoryP":"video","categoryS":"music_videos","magnet":"?xt=urn:btih:2f24181b033fffd6d460f1f9600ed06e627688ac&amp;dn=Gali+Gali+Chor+Hai+%28Title+Track%29+-+H.264+-+720p+%5BHD%5D+%7E%7E%7EAbhinavR&amp;tr=udp%3A%2F%2Ftracker.openbittorrent.com%3A80&amp;tr=udp%3A%2F%2Fopen.demonii.com%3A1337&amp;tr=udp%3A%2F%2Ftracker.coppersurfer.tk%3A6969&amp;tr=udp%3A%2F%2Fexodus.desync.com%3A6969","seeders":2,"leechers":1,"uploader":"AbhiHKRG","files":6,"time":1325857454,"description":"COVER ::\n &lt;a href=&quot;\nhttp://i.minus.com/i4uM11IoxhXhx.png&quot; rel=&quot;nofollow&quot; target=&quot;_NEW&quot;&gt;\nhttp://i.minus.com/i4uM11IoxhXhx.png&lt;/a&gt;\n\nSCREEN ::\n &lt;a href=&quot;\nhttp://i.minus.com/i5TJKPPUof0bt.png&quot; rel=&quot;nofollow&quot; target=&quot;_NEW&quot;&gt;\nhttp://i.minus.com/i5TJKPPUof0bt.png&lt;/a&gt;\n &lt;a href=&quot;\nhttp://i.minus.com/ieygpjVxEAV5y.png&quot; rel=&quot;nofollow&quot; target=&quot;_NEW&quot;&gt;\nhttp://i.minus.com/ieygpjVxEAV5y.png&lt;/a&gt;\n &lt;a href=&quot;\nhttp://i.minus.com/iAYq92oYbX1Nc.png&quot; rel=&quot;nofollow&quot; target=&quot;_NEW&quot;&gt;\nhttp://i.minus.com/iAYq92oYbX1Nc.png&lt;/a&gt;\n &lt;a href=&quot;\nhttp://i.minus.com/ibiF02XD3UGzL0.png&quot; rel=&quot;nofollow&quot; target=&quot;_NEW&quot;&gt;\nhttp://i.minus.com/ibiF02XD3UGzL0.png&lt;/a&gt;\n &lt;a href=&quot;\nhttp://i.minus.com/iRvhgcUTQ1hlY.png&quot; rel=&quot;nofollow&quot; target=&quot;_NEW&quot;&gt;\nhttp://i.minus.com/iRvhgcUTQ1hlY.png&lt;/a&gt;\n &lt;a href=&quot;\nhttp://i.minus.com/ib0V3UrxgBx9AZ.png&quot; rel=&quot;nofollow&quot; target=&quot;_NEW&quot;&gt;\nhttp://i.minus.com/ib0V3UrxgBx9AZ.png&lt;/a&gt;\n &lt;a href=&quot;\nhttp://i.minus.com/iwyTwaTHI99n.png&quot; rel=&quot;nofollow&quot; target=&quot;_NEW&quot;&gt;\nhttp://i.minus.com/iwyTwaTHI99n.png&lt;/a&gt;\n &lt;a href=&quot;\nhttp://i.minus.com/i3WMSI4HAsbAF.png&quot; rel=&quot;nofollow&quot; target=&quot;_NEW&quot;&gt;\nhttp://i.minus.com/i3WMSI4HAsbAF.png&lt;/a&gt;\n &lt;a href=&quot;\nhttp://i.minus.com/ipDFAETCIctsQ.png&quot; rel=&quot;nofollow&quot; target=&quot;_NEW&quot;&gt;\nhttp://i.minus.com/ipDFAETCIctsQ.png&lt;/a&gt;\n\n\nGeneral ::\nFormat                           : AVI\nFormat/Info                      : Audio Video Interleave\nFile size                        : 30.5 MiB\nDuration                         : 1mn 30s\nOverall bit rate                 : 2 819 Kbps\n\n\nVideo Info ::\nID                               : 0\nFormat                           : AVC\nFormat/Info                      : Advanced Video Codec\nFormat profile                   : &lt;a class=&quot;__cf_email__&quot; href=&quot;/cdn-cgi/l/email-protection&quot; data-cfemail=&quot;cc84a5aba48c80f9e2fd&quot;&gt;[email&amp;#160;protected]&lt;/a&gt;&lt;script cf-hash='f9e31' type=&quot;text/javascript&quot;&gt;\n/* &lt;![CDATA[ */!function(){try{var t=&quot;currentScript&quot;in document?document.currentScript:function(){for(var t=document.getElementsByTagName(&quot;script&quot;),e=t.length;e--;)if(t[e].getAttribute(&quot;cf-hash&quot;))return t[e]}();if(t&amp;&amp;t.previousSibling){var e,r,n,i,c=t.previousSibling,a=c.getAttribute(&quot;data-cfemail&quot;);if(a){for(e=&quot;&quot;,r=parseInt(a.substr(0,2),16),n=2;a.length-n;n+=2)i=parseInt(a.substr(n,2),16)^r,e+=String.fromCharCode(i);e=document.createTextNode(e),c.parentNode.replaceChild(e,c)}}}catch(u){}}();/* ]]&gt; */&lt;/script&gt;\nFormat settings, CABAC           : Yes\nFormat settings, ReFrames        : 2 frames\nCodec ID                         : H264\nDuration                         : 10s 0ms\nBit rate                         : 2 615 Kbps\nWidth                            : 1 280 pixels\nHeight                           : 544 pixels\nDisplay aspect ratio             : 2.35:1\nFrame rate                       : 30.000 fps\nColor space                      : YUV\nChroma subsampling               : 4:2:0\nBit depth                        : 8 bits\nScan type                        : Progressive\nBits/(Pixel*Frame)               : 0.125\nStream size                      : 28.3 MiB (93%)\n\n\nAudio Info ::\nID                               : 1\nFormat                           : MPEG Audio\nFormat version                   : Version 1\nFormat profile                   : Layer 3\nCodec ID                         : 55\nCodec ID/Hint                    : MP3\nDuration                         : 1mn 30s\nBit rate mode                    : Constant\nBit rate                         : 192 Kbps\nChannel(s)                       : 2 channels\nSampling rate                    : 44.1 KHz\nCompression mode                 : Lossy\nStream size                      : 2.08 MiB (7%)","torrent":{"xt":"urn:btih:2f24181b033fffd6d460f1f9600ed06e627688ac","amp;dn":"Gali+Gali+Chor+Hai+%28Title+Track%29+-+H.264+-+720p+%5BHD%5D+%7E%7E%7EAbhinavR","amp;tr":["udp%3A%2F%2Ftracker.openbittorrent.com%3A80","udp%3A%2F%2Fopen.demonii.com%3A1337","udp%3A%2F%2Ftracker.coppersurfer.tk%3A6969","udp%3A%2F%2Fexodus.desync.com%3A6969"],"infoHash":"2f24181b033fffd6d460f1f9600ed06e627688ac","infoHashBuffer":{"type":"Buffer","data":[47,36,24,27,3,63,255,214,212,96,241,249,96,14,208,110,98,118,136,172]},"announce":[],"urlList":[]}}